<svg xmlns="http://www.w3.org/2000/svg" xmlns:xlink="http://www.w3.org/1999/xlink" viewBox="0 0 300.2 296.2"><defs><linearGradient id="a" x1="418.75" y1="485.64" x2="418.75" y2="485.64" gradientUnits="userSpaceOnUse"><stop offset="0" stop-color="#fff"/><stop offset="1"/></linearGradient></defs><path d="M195.58,458.48c-8.49,13.11,22.94,46.36,41.95,49.59,18.94,2.68,37.67-8.64,40.57-23.07,2.55-14.05-25.81-47.47-33.25-32.41C230.48,477,199.08,450.12,195.58,458.48Z" transform="translate(-157.58 -213.47)" fill="#8b5e3c"/><path d="M195.58,458.48c-8.49,13.11,22.94,46.36,41.95,49.59,18.94,2.68,37.67-8.64,40.57-23.07,2.55-14.05-25.81-47.47-33.25-32.41C230.48,477,199.08,450.12,195.58,458.48Z" transform="translate(-157.58 -213.47)" fill="none" stroke="#4661ac" stroke-miterlimit="10"/><path d="M267.23,251.61c1.2,23.72-64.81-4.91-73.53,8.6-7,10.9,0,9-1.53-13.87-3.21-49,62.65-20.54,73.48-21.25S265.73,222,267.23,251.61Z" transform="translate(-157.58 -213.47)" fill="#6e451b" stroke="#4661ac" stroke-miterlimit="10"/><path d="M135.38,191.83" transform="translate(-157.58 -213.47)" fill="none" stroke="#231f20" stroke-miterlimit="10"/><path d="M418.75,485.64" transform="translate(-157.58 -213.47)" stroke="#231f20" stroke-miterlimit="10" fill="url(#a)"/><path d="M434.23,497.22a6.46,6.46,0,0,1-6,4.47H224.08a4.49,4.49,0,0,1-4.12-6.56c50.4-104.9,48.71-245.86,9-258-60.42-20.42.35-18.94,6-19.3h.42c44.16,3.49,52.92,4.08,69.15,4.39,16.14-.09,40.25-.48,113.38-8.16,8.45-1,17.58,5,20.21,13.29C465.28,314,463.2,402.9,434.23,497.22Z" transform="translate(-157.58 -213.47)" fill="#b67129"/><path d="M434.23,497.22a6.46,6.46,0,0,1-6,4.47H224.08a4.49,4.49,0,0,1-4.12-6.56c50.4-104.9,48.71-245.86,9-258-60.42-20.42.35-18.94,6-19.3h.42c44.16,3.49,52.92,4.08,69.15,4.39,16.14-.09,40.25-.48,113.38-8.16,8.45-1,17.58,5,20.21,13.29C465.28,314,463.2,402.9,434.23,497.22Z" transform="translate(-157.58 -213.47)" fill="none" stroke="#4661ac" stroke-miterlimit="10"/><path d="M422.26,458.53l9.07-.89c1.59,0,8-.38,8,1.2l-5.12,41.49a2.9,2.9,0,0,1-2.89,2.89H383.39c-1.59,0,4.48-18.07,4.48-19.65L393.3,467C393.3,465.39,420.68,458.53,422.26,458.53Z" transform="translate(-157.58 -213.47)" fill="#fe9"/><ellipse cx="416.16" cy="475.98" rx="25.93" ry="14.19" transform="translate(-373.64 268.72) rotate(-49.4)" fill="#fe9"/><ellipse cx="399.03" cy="471.2" rx="10.86" ry="9.65" transform="translate(-351.19 431) rotate(-66.04)" fill="#fe9"/><ellipse cx="392.88" cy="486.54" rx="16.52" ry="9.65" transform="translate(-368.87 434.49) rotate(-66.04)" fill="#fe9"/><path d="M158.87,252.16" transform="translate(-157.58 -213.47)" fill="#fff" stroke="#231f20" stroke-miterlimit="10" stroke-width="2"/><ellipse cx="437.65" cy="478.44" rx="25.93" ry="14.19" transform="translate(-368 285.9) rotate(-49.4)" fill="#fe9"/><path d="M439.34,458.84s-50.27,14.47-55.95,44.38" transform="translate(-157.58 -213.47)" fill="#fe9"/><ellipse cx="177.6" cy="284.52" rx="25.93" ry="14.19" transform="translate(-311.58 20.73) rotate(-49.4)" fill="#fe9"/><ellipse cx="82.02" cy="292.23" rx="25.93" ry="3.97" fill="#fe9"/><ellipse cx="101.95" cy="291.79" rx="25.93" ry="3.22" fill="#fe9"/><rect x="135.94" y="83.22" width="102.08" height="1.2" fill="#fff" stroke="#465fac" stroke-miterlimit="10" stroke-width="5"/><rect x="183.38" y="121.65" width="85.27" height="1.2" fill="#465fac" stroke="#4660ac" stroke-miterlimit="10" stroke-width="5"/><rect x="148.55" y="156.17" width="84.06" height="1.5" fill="#fff" stroke="#4661ac" stroke-miterlimit="10" stroke-width="5"/></svg>