<svg id="Layer_1" data-name="Layer 1" xmlns="http://www.w3.org/2000/svg" xmlns:xlink="http://www.w3.org/1999/xlink" viewBox="0 0 300.54 288.73"><defs><style>.cls-1,.cls-7,.cls-8,.cls-9{fill:#fff;}.cls-1,.cls-2,.cls-3,.cls-4,.cls-5,.cls-6,.cls-7{stroke:#231f20;}.cls-1,.cls-10,.cls-2,.cls-3,.cls-4,.cls-5,.cls-6,.cls-7,.cls-9{stroke-miterlimit:10;}.cls-2{fill:#8b5f3d;}.cls-3{fill:#6e471d;}.cls-4{fill:none;}.cls-5{fill:url(#linear-gradient);}.cls-6{fill:#b67129;}.cls-7{stroke-width:2px;}.cls-9{stroke:#4760ac;}.cls-10,.cls-9{stroke-width:5px;}.cls-10{fill:#4760ac;stroke:#4661ad;}</style><linearGradient id="linear-gradient" x1="672.32" y1="-30.33" x2="672.32" y2="-30.33" gradientTransform="matrix(1, 0, 0, -1, -157.58, 400.53)" gradientUnits="userSpaceOnUse"><stop offset="0" stop-color="#fff"/><stop offset="1" stop-color="#010101"/></linearGradient></defs><path class="cls-1" d="M238.27-10.07" transform="translate(-253.57 -156.99)"/><path class="cls-2" d="M285.73,391.63c-2.4,20.15,4.1,38.74,17.8,47.45,10.15,6.46,21.16,5.52,30.42,4.73,5.48-.47,39.92-4.22,43.52-21.29C380,410.68,354.85,384,344.37,390c-1.08.61-1.31,1.28-2.57,2.66-5.71,6.26-14.93,6.48-22.17,6.64C305.09,399.59,292.71,394.88,285.73,391.63Z" transform="translate(-253.57 -156.99)"/><path class="cls-3" d="M363.22,196.83c1.2,23.72-64.81-4.91-73.53,8.6-7,10.9,0,9-1.53-13.87-3.21-49,62.65-20.54,73.48-21.25S361.72,167.22,363.22,196.83Z" transform="translate(-253.57 -156.99)"/><path class="cls-4" d="M231.37,137.05" transform="translate(-253.57 -156.99)"/><path class="cls-5" d="M514.74,430.86" transform="translate(-253.57 -156.99)"/><path class="cls-6" d="M533.19,383.15a23.75,23.75,0,0,0-15.26.85l-5.08,6.78c-1.57.13-3.94.36-6.78.85-7.83,1.33-12.27,1.89-16.1,5.08-1.23,1-6.17,5.14-7.63,11.87-1.38,6.34,1.63,9-.85,13.56-1.81,3.29-4.06,3-6.78,6.78a19,19,0,0,0-3.39,10.16l-152.1,6.13a4.49,4.49,0,0,1-4.62-4.35,4.57,4.57,0,0,1,.5-2.21c50.4-104.9,48.71-245.86,9-258-60.42-20.42.35-18.94,6-19.3h.42c44.16,3.49,52.92,4.08,69.15,4.39,16.14-.09,40.25-.48,113.38-8.16,12.69-1.33,18.48,11.39,20.21,13.29,5.78,6.36,8,13.21,12.64,26.69a129.92,129.92,0,0,1,5.93,22c1.31,7.7,1.46,13.15,1.7,23.73.13,5.83.28,18.53-.85,36.44-.13,2-1,15.35-2.54,28C546.4,338,538.35,366.57,533.19,383.15Z" transform="translate(-253.57 -156.99)"/><path class="cls-7" d="M254.86,197.38" transform="translate(-253.57 -156.99)"/><ellipse class="cls-8" cx="273.6" cy="229.73" rx="25.93" ry="14.19" transform="translate(-332.45 130.98) rotate(-49.4)"/><rect class="cls-9" x="135.94" y="84.92" width="102.08" height="1.2"/><rect class="cls-10" x="183.38" y="123.35" width="85.27" height="1.2"/><rect class="cls-9" x="148.55" y="157.87" width="84.06" height="1.5"/></svg>